<svg width="698" height="714" viewBox="0 0 698 714" fill="none" xmlns="http://www.w3.org/2000/svg">
<g clip-path="url(#clip0_94_119)">
<circle cx="348.5" cy="294.5" r="291.121" stroke="url(#paint0_linear_94_119)" stroke-width="6.75717"/>
<path d="M208.289 415.566V163.298L324.85 326.033" stroke="url(#paint1_linear_94_119)" stroke-width="9.00956" stroke-linecap="square"/>
<path d="M254.463 498.904L458.867 206.657V399.799" stroke="url(#paint2_linear_94_119)" stroke-width="9.00956" stroke-linecap="square"/>
<path d="M273.676 409.284L493.691 100.163" stroke="url(#paint3_linear_94_119)" stroke-width="9.00956" stroke-linecap="square"/>
<path d="M13.3479 692.05C13.3479 693.543 13.5346 694.64 13.9079 695.34C14.2813 695.993 15.0279 696.46 16.1479 696.74C17.2679 697.02 19.0179 697.16 21.3979 697.16C21.5379 697.16 21.6079 697.3 21.6079 697.58C21.6079 697.86 21.5379 698 21.3979 698C19.4846 698 17.9913 697.977 16.9179 697.93L10.8279 697.86L6.06793 697.93C5.22793 697.977 4.03793 698 2.49793 698C2.35793 698 2.28793 697.86 2.28793 697.58C2.28793 697.3 2.35793 697.16 2.49793 697.16C4.17793 697.16 5.4146 697.043 6.20793 696.81C7.00126 696.577 7.53793 696.133 7.81793 695.48C8.09793 694.78 8.23793 693.73 8.23793 692.33V659.92C8.23793 658.52 8.09793 657.493 7.81793 656.84C7.53793 656.187 7.00126 655.743 6.20793 655.51C5.4146 655.23 4.17793 655.09 2.49793 655.09C2.35793 655.09 2.28793 654.95 2.28793 654.67C2.28793 654.39 2.35793 654.25 2.49793 654.25L6.06793 654.32C8.02793 654.413 9.59126 654.46 10.7579 654.46C11.8779 654.46 13.2079 654.39 14.7479 654.25C15.3079 654.25 16.1713 654.227 17.3379 654.18C18.5513 654.087 19.6013 654.04 20.4879 654.04C24.8279 654.04 28.3046 655.02 30.9179 656.98C33.5779 658.893 34.9079 661.81 34.9079 665.73C34.9079 668.763 34.1379 671.33 32.5979 673.43C31.1046 675.53 29.1679 677.093 26.7879 678.12C24.4546 679.147 22.0279 679.66 19.5079 679.66C18.1546 679.66 17.0113 679.543 16.0779 679.31C15.9846 679.31 15.9379 679.193 15.9379 678.96C15.9379 678.82 15.9613 678.68 16.0079 678.54C16.1013 678.4 16.1946 678.353 16.2879 678.4C16.9879 678.587 17.8046 678.68 18.7379 678.68C21.6313 678.68 24.0813 677.677 26.0879 675.67C28.0946 673.663 29.0979 670.77 29.0979 666.99C29.0979 663.303 28.1413 660.41 26.2279 658.31C24.3146 656.21 21.7946 655.16 18.6679 655.16C17.1279 655.16 16.0079 655.277 15.3079 655.51C14.6079 655.697 14.0946 656.14 13.7679 656.84C13.4879 657.493 13.3479 658.567 13.3479 660.06V692.05ZM85.7941 697.16C85.9341 697.16 86.0041 697.3 86.0041 697.58C86.0041 697.86 85.9341 698 85.7941 698H76.2041C75.0841 698 72.9608 696.11 69.8341 692.33C66.7541 688.503 62.9741 683.183 58.4941 676.37C57.2341 676.603 56.0674 676.72 54.9941 676.72C54.7608 676.72 53.6641 676.65 51.7041 676.51V692.33C51.7041 693.777 51.8441 694.827 52.1241 695.48C52.4041 696.133 52.9408 696.577 53.7341 696.81C54.5274 697.043 55.7874 697.16 57.5141 697.16C57.6541 697.16 57.7241 697.3 57.7241 697.58C57.7241 697.86 57.6541 698 57.5141 698C56.0208 698 54.8774 697.977 54.0841 697.93L49.1141 697.86L44.2841 697.93C43.3974 697.977 42.2074 698 40.7141 698C40.6208 698 40.5741 697.86 40.5741 697.58C40.5741 697.3 40.6208 697.16 40.7141 697.16C42.4408 697.16 43.7008 697.043 44.4941 696.81C45.2874 696.577 45.8241 696.133 46.1041 695.48C46.4308 694.78 46.5941 693.73 46.5941 692.33V659.92C46.5941 658.52 46.4541 657.493 46.1741 656.84C45.8941 656.187 45.3574 655.743 44.5641 655.51C43.7708 655.23 42.5341 655.09 40.8541 655.09C40.7141 655.09 40.6441 654.95 40.6441 654.67C40.6441 654.39 40.7141 654.25 40.8541 654.25L44.2841 654.32C46.2441 654.413 47.8541 654.46 49.1141 654.46C50.0941 654.46 51.0274 654.437 51.9141 654.39C52.8008 654.343 53.5708 654.297 54.2241 654.25C55.9508 654.11 57.5608 654.04 59.0541 654.04C62.7874 654.04 65.6808 654.88 67.7341 656.56C69.8341 658.193 70.8841 660.41 70.8841 663.21C70.8841 665.73 70.1374 668.017 68.6441 670.07C67.1974 672.123 65.2608 673.733 62.8341 674.9C66.7541 680.547 70.0208 684.957 72.6341 688.13C75.2941 691.303 77.6508 693.613 79.7041 695.06C81.8041 696.46 83.8341 697.16 85.7941 697.16ZM51.7041 674.83C53.0108 674.97 54.3874 675.04 55.8341 675.04C59.3341 675.04 61.8308 674.27 63.3241 672.73C64.8174 671.143 65.5641 668.693 65.5641 665.38C65.5641 661.693 64.7941 659.08 63.2541 657.54C61.7141 655.953 59.4974 655.16 56.6041 655.16C54.7841 655.16 53.5008 655.51 52.7541 656.21C52.0541 656.863 51.7041 658.147 51.7041 660.06V674.83ZM107.484 698.84C103.144 698.84 99.2709 697.837 95.8643 695.83C92.5043 693.777 89.8909 691.023 88.0243 687.57C86.2043 684.07 85.2943 680.267 85.2943 676.16C85.2943 671.353 86.5076 667.247 88.9343 663.84C91.3609 660.387 94.4643 657.797 98.2443 656.07C102.071 654.343 105.968 653.48 109.934 653.48C114.368 653.48 118.264 654.53 121.624 656.63C124.984 658.683 127.551 661.413 129.324 664.82C131.144 668.227 132.054 671.843 132.054 675.67C132.054 679.917 130.934 683.813 128.694 687.36C126.454 690.907 123.444 693.707 119.664 695.76C115.931 697.813 111.871 698.84 107.484 698.84ZM109.934 697.3C113.014 697.3 115.768 696.53 118.194 694.99C120.668 693.45 122.604 691.21 124.004 688.27C125.451 685.283 126.174 681.737 126.174 677.63C126.174 673.29 125.381 669.417 123.794 666.01C122.254 662.603 120.038 659.943 117.144 658.03C114.251 656.117 110.891 655.16 107.064 655.16C102.071 655.16 98.1743 656.817 95.3743 660.13C92.5743 663.397 91.1743 667.923 91.1743 673.71C91.1743 678.097 91.9676 682.087 93.5543 685.68C95.1409 689.273 97.3576 692.12 100.204 694.22C103.051 696.273 106.294 697.3 109.934 697.3ZM156.948 698.28C155.548 698.28 153.938 698.21 152.118 698.07C151.418 698.023 150.555 697.977 149.528 697.93C148.548 697.883 147.451 697.86 146.238 697.86L141.408 697.93C140.521 697.977 139.331 698 137.838 698C137.745 698 137.698 697.86 137.698 697.58C137.698 697.3 137.745 697.16 137.838 697.16C139.565 697.16 140.825 697.043 141.618 696.81C142.411 696.577 142.948 696.133 143.228 695.48C143.555 694.78 143.718 693.73 143.718 692.33V659.92C143.718 658.52 143.578 657.493 143.298 656.84C143.018 656.187 142.481 655.743 141.688 655.51C140.895 655.23 139.635 655.09 137.908 655.09C137.815 655.09 137.768 654.95 137.768 654.67C137.768 654.39 137.815 654.25 137.908 654.25L141.408 654.32C143.461 654.413 145.071 654.46 146.238 654.46C148.011 654.46 149.761 654.39 151.488 654.25C153.728 654.157 155.221 654.11 155.968 654.11C160.821 654.11 165.115 655.043 168.848 656.91C172.581 658.777 175.475 661.32 177.528 664.54C179.581 667.76 180.608 671.377 180.608 675.39C180.608 679.917 179.535 683.93 177.388 687.43C175.288 690.883 172.418 693.567 168.778 695.48C165.185 697.347 161.241 698.28 156.948 698.28ZM156.248 697.16C159.841 697.16 163.015 696.39 165.768 694.85C168.568 693.263 170.738 690.953 172.278 687.92C173.865 684.84 174.658 681.177 174.658 676.93C174.658 672.87 173.911 669.207 172.418 665.94C170.925 662.627 168.801 660.013 166.048 658.1C163.341 656.187 160.191 655.23 156.598 655.23C154.591 655.23 153.051 655.347 151.978 655.58C150.905 655.813 150.111 656.28 149.598 656.98C149.085 657.633 148.828 658.66 148.828 660.06V691.56C148.828 693.613 149.318 695.06 150.298 695.9C151.325 696.74 153.308 697.16 156.248 697.16ZM224.102 662.16C224.102 659.827 223.565 658.077 222.492 656.91C221.465 655.697 219.948 655.09 217.942 655.09C217.802 655.09 217.732 654.95 217.732 654.67C217.732 654.39 217.802 654.25 217.942 654.25L221.022 654.32C222.608 654.413 223.938 654.46 225.012 654.46C225.898 654.46 227.088 654.413 228.582 654.32L231.522 654.25C231.615 654.25 231.662 654.39 231.662 654.67C231.662 654.95 231.615 655.09 231.522 655.09C229.655 655.09 228.255 655.697 227.322 656.91C226.388 658.077 225.922 659.827 225.922 662.16V681.97C225.922 687.243 224.405 691.397 221.372 694.43C218.338 697.417 214.278 698.91 209.192 698.91C205.738 698.91 202.705 698.233 200.092 696.88C197.525 695.527 195.518 693.613 194.072 691.14C192.625 688.62 191.902 685.68 191.902 682.32V659.92C191.902 658.52 191.762 657.493 191.482 656.84C191.202 656.187 190.665 655.743 189.872 655.51C189.078 655.23 187.818 655.09 186.092 655.09C185.998 655.09 185.952 654.95 185.952 654.67C185.952 654.39 185.998 654.25 186.092 654.25L189.592 654.32C191.645 654.413 193.255 654.46 194.422 654.46C195.728 654.46 197.408 654.413 199.462 654.32L202.752 654.25C202.892 654.25 202.962 654.39 202.962 654.67C202.962 654.95 202.892 655.09 202.752 655.09C201.072 655.09 199.835 655.23 199.042 655.51C198.248 655.79 197.712 656.28 197.432 656.98C197.152 657.633 197.012 658.66 197.012 660.06V679.87C197.012 685.377 198.225 689.577 200.652 692.47C203.078 695.317 206.508 696.74 210.942 696.74C215.095 696.74 218.315 695.457 220.602 692.89C222.935 690.277 224.102 686.66 224.102 682.04V662.16ZM261.987 653.48C264.787 653.48 267.19 653.69 269.197 654.11C271.25 654.483 273.257 655.137 275.217 656.07C275.544 656.257 275.73 656.443 275.777 656.63C275.87 656.77 275.94 657.12 275.987 657.68L276.897 666.22C276.897 666.36 276.757 666.453 276.477 666.5C276.244 666.547 276.104 666.477 276.057 666.29C273.77 658.497 268.94 654.6 261.567 654.6C257.787 654.6 254.45 655.463 251.557 657.19C248.664 658.917 246.4 661.39 244.767 664.61C243.18 667.783 242.387 671.493 242.387 675.74C242.387 679.847 243.25 683.58 244.977 686.94C246.75 690.3 249.13 692.937 252.117 694.85C255.104 696.763 258.37 697.72 261.917 697.72C265.604 697.72 268.614 696.81 270.947 694.99C273.327 693.123 275.217 690.253 276.617 686.38C276.664 686.24 276.804 686.193 277.037 686.24C277.27 686.287 277.387 686.357 277.387 686.45L276.687 694.29C276.594 694.85 276.5 695.223 276.407 695.41C276.36 695.55 276.174 695.713 275.847 695.9C273.467 697.02 271.204 697.79 269.057 698.21C266.91 698.677 264.507 698.91 261.847 698.91C256.947 698.91 252.56 697.953 248.687 696.04C244.86 694.08 241.85 691.373 239.657 687.92C237.51 684.42 236.437 680.43 236.437 675.95C236.437 671.563 237.534 667.667 239.727 664.26C241.92 660.853 244.954 658.217 248.827 656.35C252.747 654.437 257.134 653.48 261.987 653.48ZM294.507 655.58C291.613 655.58 289.373 656.373 287.787 657.96C286.247 659.5 285.127 662.043 284.427 665.59C284.38 665.73 284.217 665.8 283.937 665.8C283.703 665.753 283.587 665.683 283.587 665.59C283.773 664.283 283.983 662.183 284.217 659.29C284.45 656.397 284.567 654.203 284.567 652.71C284.567 652.477 284.707 652.36 284.987 652.36C285.267 652.36 285.407 652.477 285.407 652.71C285.407 653.737 286.667 654.25 289.187 654.25C293.2 654.39 297.89 654.46 303.257 654.46C306.01 654.46 308.927 654.413 312.007 654.32L316.767 654.25C318.447 654.25 319.683 654.133 320.477 653.9C321.317 653.667 321.853 653.2 322.087 652.5C322.133 652.313 322.273 652.22 322.507 652.22C322.74 652.22 322.857 652.313 322.857 652.5C322.717 653.853 322.577 655.953 322.437 658.8C322.297 661.6 322.227 663.863 322.227 665.59C322.227 665.683 322.087 665.73 321.807 665.73C321.573 665.73 321.433 665.683 321.387 665.59C321.2 661.997 320.36 659.43 318.867 657.89C317.42 656.35 315.157 655.58 312.077 655.58C310.21 655.58 308.857 655.673 308.017 655.86C307.223 656.047 306.663 656.443 306.337 657.05C306.057 657.657 305.917 658.66 305.917 660.06V692.33C305.917 693.777 306.057 694.827 306.337 695.48C306.663 696.133 307.27 696.577 308.157 696.81C309.09 697.043 310.56 697.16 312.567 697.16C312.66 697.16 312.707 697.3 312.707 697.58C312.707 697.86 312.66 698 312.567 698C310.98 698 309.72 697.977 308.787 697.93L303.257 697.86L297.937 697.93C297.003 697.977 295.697 698 294.017 698C293.923 698 293.877 697.86 293.877 697.58C293.877 697.3 293.923 697.16 294.017 697.16C295.977 697.16 297.423 697.043 298.357 696.81C299.29 696.577 299.92 696.133 300.247 695.48C300.573 694.78 300.737 693.73 300.737 692.33V659.92C300.737 658.567 300.573 657.61 300.247 657.05C299.967 656.443 299.407 656.047 298.567 655.86C297.773 655.673 296.42 655.58 294.507 655.58ZM339.709 692.33C339.709 693.777 339.849 694.827 340.129 695.48C340.409 696.133 340.945 696.577 341.739 696.81C342.532 697.043 343.792 697.16 345.519 697.16C345.612 697.16 345.659 697.3 345.659 697.58C345.659 697.86 345.612 698 345.519 698C344.072 698 342.929 697.977 342.089 697.93L337.049 697.86L332.219 697.93C331.332 697.977 330.142 698 328.649 698C328.509 698 328.439 697.86 328.439 697.58C328.439 697.3 328.509 697.16 328.649 697.16C330.375 697.16 331.635 697.043 332.429 696.81C333.222 696.577 333.759 696.133 334.039 695.48C334.365 694.78 334.529 693.73 334.529 692.33V659.92C334.529 658.52 334.365 657.493 334.039 656.84C333.759 656.187 333.222 655.743 332.429 655.51C331.635 655.23 330.375 655.09 328.649 655.09C328.509 655.09 328.439 654.95 328.439 654.67C328.439 654.39 328.509 654.25 328.649 654.25L332.219 654.32C334.179 654.413 335.789 654.46 337.049 654.46C338.402 654.46 340.105 654.413 342.159 654.32L345.519 654.25C345.612 654.25 345.659 654.39 345.659 654.67C345.659 654.95 345.612 655.09 345.519 655.09C343.839 655.09 342.579 655.23 341.739 655.51C340.945 655.79 340.409 656.28 340.129 656.98C339.849 657.633 339.709 658.66 339.709 660.06V692.33ZM374.428 698.84C370.088 698.84 366.214 697.837 362.808 695.83C359.448 693.777 356.834 691.023 354.968 687.57C353.148 684.07 352.238 680.267 352.238 676.16C352.238 671.353 353.451 667.247 355.878 663.84C358.304 660.387 361.408 657.797 365.188 656.07C369.014 654.343 372.911 653.48 376.878 653.48C381.311 653.48 385.208 654.53 388.568 656.63C391.928 658.683 394.494 661.413 396.268 664.82C398.088 668.227 398.998 671.843 398.998 675.67C398.998 679.917 397.878 683.813 395.638 687.36C393.398 690.907 390.388 693.707 386.608 695.76C382.874 697.813 378.814 698.84 374.428 698.84ZM376.878 697.3C379.958 697.3 382.711 696.53 385.138 694.99C387.611 693.45 389.548 691.21 390.948 688.27C392.394 685.283 393.118 681.737 393.118 677.63C393.118 673.29 392.324 669.417 390.738 666.01C389.198 662.603 386.981 659.943 384.088 658.03C381.194 656.117 377.834 655.16 374.008 655.16C369.014 655.16 365.118 656.817 362.318 660.13C359.518 663.397 358.118 667.923 358.118 673.71C358.118 678.097 358.911 682.087 360.498 685.68C362.084 689.273 364.301 692.12 367.148 694.22C369.994 696.273 373.238 697.3 376.878 697.3ZM451.891 654.25C452.031 654.25 452.101 654.39 452.101 654.67C452.101 654.95 452.031 655.09 451.891 655.09C449.978 655.09 448.555 655.673 447.621 656.84C446.735 657.96 446.291 659.733 446.291 662.16V698.84C446.291 698.98 446.175 699.073 445.941 699.12C445.708 699.167 445.545 699.143 445.451 699.05L412.831 659.99L412.621 659.71V690.16C412.621 692.587 413.065 694.36 413.951 695.48C414.838 696.6 416.215 697.16 418.081 697.16C418.221 697.16 418.291 697.3 418.291 697.58C418.291 697.86 418.221 698 418.081 698C416.961 698 416.075 697.977 415.421 697.93L411.851 697.86L408.141 697.93C407.441 697.977 406.438 698 405.131 698C405.038 698 404.991 697.86 404.991 697.58C404.991 697.3 405.038 697.16 405.131 697.16C407.138 697.16 408.585 696.6 409.471 695.48C410.405 694.36 410.871 692.587 410.871 690.16V657.89C408.958 656.023 407.021 655.09 405.061 655.09C404.921 655.09 404.851 654.95 404.851 654.67C404.851 654.39 404.921 654.25 405.061 654.25L407.651 654.32C408.211 654.367 409.005 654.39 410.031 654.39L413.321 654.32C413.695 654.273 414.185 654.25 414.791 654.25C415.165 654.25 415.421 654.343 415.561 654.53C415.748 654.67 416.028 655.02 416.401 655.58C416.961 656.42 417.521 657.19 418.081 657.89L444.541 689.95V662.16C444.541 659.733 444.121 657.96 443.281 656.84C442.441 655.673 441.065 655.09 439.151 655.09C439.058 655.09 439.011 654.95 439.011 654.67C439.011 654.39 439.058 654.25 439.151 654.25L441.881 654.32C443.375 654.413 444.565 654.46 445.451 654.46C446.338 654.46 447.528 654.413 449.021 654.32L451.891 654.25ZM520.415 697.16C520.555 697.16 520.625 697.3 520.625 697.58C520.625 697.86 520.555 698 520.415 698C518.922 698 517.755 697.977 516.915 697.93L511.945 697.86L506.555 697.93C505.762 697.977 504.665 698 503.265 698C503.125 698 503.055 697.86 503.055 697.58C503.055 697.3 503.125 697.16 503.265 697.16C505.085 697.16 506.392 697.043 507.185 696.81C508.025 696.577 508.585 696.133 508.865 695.48C509.192 694.78 509.355 693.73 509.355 692.33V676.02H483.245V692.33C483.245 693.73 483.385 694.78 483.665 695.48C483.992 696.133 484.552 696.577 485.345 696.81C486.185 697.043 487.515 697.16 489.335 697.16C489.429 697.16 489.475 697.3 489.475 697.58C489.475 697.86 489.429 698 489.335 698C487.842 698 486.675 697.977 485.835 697.93L480.585 697.86L475.685 697.93C474.845 697.977 473.655 698 472.115 698C472.022 698 471.975 697.86 471.975 697.58C471.975 697.3 472.022 697.16 472.115 697.16C473.889 697.16 475.172 697.043 475.965 696.81C476.805 696.577 477.365 696.133 477.645 695.48C477.972 694.78 478.135 693.73 478.135 692.33V659.92C478.135 658.52 477.972 657.493 477.645 656.84C477.365 656.187 476.805 655.743 475.965 655.51C475.172 655.23 473.912 655.09 472.185 655.09C472.092 655.09 472.045 654.95 472.045 654.67C472.045 654.39 472.092 654.25 472.185 654.25L475.755 654.32C477.715 654.413 479.325 654.46 480.585 654.46C481.985 654.46 483.759 654.413 485.905 654.32L489.335 654.25C489.429 654.25 489.475 654.39 489.475 654.67C489.475 654.95 489.429 655.09 489.335 655.09C487.562 655.09 486.255 655.23 485.415 655.51C484.575 655.79 483.992 656.28 483.665 656.98C483.385 657.633 483.245 658.66 483.245 660.06V674.48H509.355V660.06C509.355 658.66 509.192 657.633 508.865 656.98C508.585 656.28 508.025 655.79 507.185 655.51C506.345 655.23 505.039 655.09 503.265 655.09C503.125 655.09 503.055 654.95 503.055 654.67C503.055 654.39 503.125 654.25 503.265 654.25L506.555 654.32C508.609 654.413 510.405 654.46 511.945 654.46C513.205 654.46 514.862 654.413 516.915 654.32L520.415 654.25C520.555 654.25 520.625 654.39 520.625 654.67C520.625 654.95 520.555 655.09 520.415 655.09C518.642 655.09 517.335 655.23 516.495 655.51C515.702 655.743 515.142 656.187 514.815 656.84C514.535 657.493 514.395 658.52 514.395 659.92V692.33C514.395 693.73 514.535 694.78 514.815 695.48C515.142 696.133 515.702 696.577 516.495 696.81C517.335 697.043 518.642 697.16 520.415 697.16ZM548.539 698.84C544.199 698.84 540.326 697.837 536.919 695.83C533.559 693.777 530.946 691.023 529.079 687.57C527.259 684.07 526.349 680.267 526.349 676.16C526.349 671.353 527.562 667.247 529.989 663.84C532.416 660.387 535.519 657.797 539.299 656.07C543.126 654.343 547.022 653.48 550.989 653.48C555.422 653.48 559.319 654.53 562.679 656.63C566.039 658.683 568.606 661.413 570.379 664.82C572.199 668.227 573.109 671.843 573.109 675.67C573.109 679.917 571.989 683.813 569.749 687.36C567.509 690.907 564.499 693.707 560.719 695.76C556.986 697.813 552.926 698.84 548.539 698.84ZM550.989 697.3C554.069 697.3 556.822 696.53 559.249 694.99C561.722 693.45 563.659 691.21 565.059 688.27C566.506 685.283 567.229 681.737 567.229 677.63C567.229 673.29 566.436 669.417 564.849 666.01C563.309 662.603 561.092 659.943 558.199 658.03C555.306 656.117 551.946 655.16 548.119 655.16C543.126 655.16 539.229 656.817 536.429 660.13C533.629 663.397 532.229 667.923 532.229 673.71C532.229 678.097 533.022 682.087 534.609 685.68C536.196 689.273 538.412 692.12 541.259 694.22C544.106 696.273 547.349 697.3 550.989 697.3ZM616.553 662.16C616.553 659.827 616.016 658.077 614.943 656.91C613.916 655.697 612.399 655.09 610.393 655.09C610.253 655.09 610.183 654.95 610.183 654.67C610.183 654.39 610.253 654.25 610.393 654.25L613.473 654.32C615.059 654.413 616.389 654.46 617.463 654.46C618.349 654.46 619.539 654.413 621.033 654.32L623.973 654.25C624.066 654.25 624.113 654.39 624.113 654.67C624.113 654.95 624.066 655.09 623.973 655.09C622.106 655.09 620.706 655.697 619.773 656.91C618.839 658.077 618.373 659.827 618.373 662.16V681.97C618.373 687.243 616.856 691.397 613.823 694.43C610.789 697.417 606.729 698.91 601.643 698.91C598.189 698.91 595.156 698.233 592.543 696.88C589.976 695.527 587.969 693.613 586.523 691.14C585.076 688.62 584.353 685.68 584.353 682.32V659.92C584.353 658.52 584.213 657.493 583.933 656.84C583.653 656.187 583.116 655.743 582.323 655.51C581.529 655.23 580.269 655.09 578.543 655.09C578.449 655.09 578.403 654.95 578.403 654.67C578.403 654.39 578.449 654.25 578.543 654.25L582.043 654.32C584.096 654.413 585.706 654.46 586.873 654.46C588.179 654.46 589.859 654.413 591.913 654.32L595.203 654.25C595.343 654.25 595.413 654.39 595.413 654.67C595.413 654.95 595.343 655.09 595.203 655.09C593.523 655.09 592.286 655.23 591.493 655.51C590.699 655.79 590.163 656.28 589.883 656.98C589.603 657.633 589.463 658.66 589.463 660.06V679.87C589.463 685.377 590.676 689.577 593.103 692.47C595.529 695.317 598.959 696.74 603.393 696.74C607.546 696.74 610.766 695.457 613.053 692.89C615.386 690.277 616.553 686.66 616.553 682.04V662.16ZM635.411 662.23C635.411 664.003 635.854 665.567 636.741 666.92C637.628 668.273 638.701 669.417 639.961 670.35C641.221 671.283 642.994 672.427 645.281 673.78C647.661 675.227 649.528 676.463 650.881 677.49C652.234 678.517 653.378 679.8 654.311 681.34C655.291 682.88 655.781 684.7 655.781 686.8C655.781 689.087 655.198 691.14 654.031 692.96C652.911 694.78 651.254 696.227 649.061 697.3C646.868 698.327 644.278 698.84 641.291 698.84C637.511 698.84 634.151 698 631.211 696.32C630.978 696.18 630.814 696.017 630.721 695.83C630.628 695.643 630.558 695.363 630.511 694.99L629.741 685.19C629.694 685.003 629.788 684.887 630.021 684.84C630.301 684.793 630.464 684.863 630.511 685.05C631.444 688.503 632.914 691.467 634.921 693.94C636.928 696.367 639.588 697.58 642.901 697.58C645.188 697.58 647.101 696.973 648.641 695.76C650.181 694.547 650.951 692.563 650.951 689.81C650.951 687.71 650.484 685.913 649.551 684.42C648.618 682.88 647.474 681.597 646.121 680.57C644.814 679.497 643.018 678.283 640.731 676.93C638.444 675.483 636.671 674.293 635.411 673.36C634.151 672.38 633.078 671.167 632.191 669.72C631.304 668.227 630.861 666.477 630.861 664.47C630.861 662.09 631.491 660.083 632.751 658.45C634.011 656.77 635.668 655.533 637.721 654.74C639.774 653.9 641.944 653.48 644.231 653.48C647.124 653.48 649.901 654.017 652.561 655.09C653.261 655.417 653.611 655.837 653.611 656.35L654.031 664.75C654.031 664.937 653.891 665.053 653.611 665.1C653.378 665.147 653.238 665.077 653.191 664.89C652.724 662.417 651.674 660.083 650.041 657.89C648.408 655.697 646.051 654.6 642.971 654.6C640.498 654.6 638.608 655.323 637.301 656.77C636.041 658.217 635.411 660.037 635.411 662.23ZM693.099 687.5C693.099 687.36 693.239 687.313 693.519 687.36C693.799 687.36 693.939 687.43 693.939 687.57C693.519 690.603 693.309 693.73 693.309 696.95C693.309 697.323 693.216 697.603 693.029 697.79C692.889 697.93 692.609 698 692.189 698H662.579C662.486 698 662.439 697.86 662.439 697.58C662.439 697.3 662.486 697.16 662.579 697.16C664.306 697.16 665.566 697.043 666.359 696.81C667.153 696.577 667.689 696.133 667.969 695.48C668.249 694.78 668.389 693.73 668.389 692.33V659.92C668.389 658.52 668.249 657.493 667.969 656.84C667.689 656.187 667.153 655.743 666.359 655.51C665.566 655.23 664.306 655.09 662.579 655.09C662.486 655.09 662.439 654.95 662.439 654.67C662.439 654.39 662.486 654.25 662.579 654.25H690.999C691.419 654.25 691.629 654.46 691.629 654.88L691.769 663.63C691.769 663.77 691.629 663.84 691.349 663.84C691.116 663.84 690.999 663.77 690.999 663.63C690.719 661.11 689.856 659.173 688.409 657.82C686.963 656.467 685.073 655.79 682.739 655.79H678.889C676.696 655.79 675.249 656.093 674.549 656.7C673.849 657.307 673.499 658.473 673.499 660.2V674.48H681.549C683.883 674.48 685.563 674.083 686.589 673.29C687.663 672.497 688.199 671.213 688.199 669.44C688.199 669.347 688.339 669.3 688.619 669.3C688.899 669.3 689.039 669.347 689.039 669.44L688.969 675.25C688.969 676.603 688.993 677.63 689.039 678.33L689.109 681.83C689.109 681.923 688.969 681.97 688.689 681.97C688.409 681.97 688.269 681.923 688.269 681.83C688.269 679.777 687.733 678.307 686.659 677.42C685.586 676.487 683.836 676.02 681.409 676.02H673.499V692.05C673.499 693.263 673.639 694.173 673.919 694.78C674.199 695.387 674.689 695.83 675.389 696.11C676.089 696.343 677.163 696.46 678.609 696.46H683.579C686.053 696.46 688.106 695.69 689.739 694.15C691.373 692.563 692.493 690.347 693.099 687.5Z" fill="#935B54"/>
</g>
<defs>
<linearGradient id="paint0_linear_94_119" x1="348.5" y1="0" x2="348.5" y2="589" gradientUnits="userSpaceOnUse">
<stop stop-color="#935B54"/>
<stop offset="0.501894" stop-color="#DBC3C4"/>
<stop offset="0.949838" stop-color="#935B54"/>
</linearGradient>
<linearGradient id="paint1_linear_94_119" x1="266.569" y1="163.298" x2="266.569" y2="415.566" gradientUnits="userSpaceOnUse">
<stop stop-color="#935B54"/>
<stop offset="0.48106" stop-color="#DBC3C4"/>
<stop offset="0.955046" stop-color="#935B54"/>
</linearGradient>
<linearGradient id="paint2_linear_94_119" x1="356.665" y1="206.657" x2="356.665" y2="498.904" gradientUnits="userSpaceOnUse">
<stop stop-color="#935B54"/>
<stop offset="0.48106" stop-color="#DBC3C4"/>
<stop offset="0.955046" stop-color="#935B54"/>
</linearGradient>
<linearGradient id="paint3_linear_94_119" x1="529.62" y1="279.674" x2="256.995" y2="277.733" gradientUnits="userSpaceOnUse">
<stop stop-color="#935B54"/>
<stop offset="0.453378" stop-color="#DBC3C4"/>
<stop offset="1" stop-color="#935B54"/>
</linearGradient>
<clipPath id="clip0_94_119">
<rect width="698" height="714" fill="white"/>
</clipPath>
</defs>
</svg>
